<svg width="538" height="481" viewBox="0 0 538 481" fill="none" xmlns="http://www.w3.org/2000/svg">
<path d="M448.269 72.0187C448.269 72.0187 449.595 65.1413 441.865 53.6171C434.135 42.0929 429.03 35.3748 429.03 35.3748C429.03 35.3748 421.074 50.2713 428.181 61.6628C433.434 69.7285 439.35 77.3404 445.869 84.4191L448.269 72.0187Z" fill="#EE6F57"/>
<path d="M425.901 112.287C425.901 112.287 427.227 105.41 419.497 93.8856C411.766 82.3613 406.635 75.6433 406.635 75.6433C406.635 75.6433 398.679 90.5398 405.8 101.918C411.05 109.989 416.967 117.606 423.488 124.688L425.901 112.287Z" fill="#EE6F57"/>
<path d="M445.365 83.6359C445.365 83.6359 447.434 76.9975 459.699 70.4388C471.963 63.8801 479.587 60.4414 479.587 60.4414C479.587 60.4414 479.587 77.3029 467.946 84.0076C459.507 88.63 450.699 92.5423 441.613 95.7044L445.365 83.6359Z" fill="#EE6F57"/>
<path d="M418.582 131.114C418.582 131.114 421.34 124.661 434.214 119.497C447.089 114.332 455.084 111.65 455.084 111.65C455.084 111.65 453.268 128.419 441.03 133.862C432.158 137.577 422.99 140.539 413.623 142.718L418.582 131.114Z" fill="#EE6F57"/>
<path d="M410.944 187.101C410.944 187.101 412.27 180.211 423.806 172.497C435.341 164.783 442.568 160.442 442.568 160.442C442.568 160.442 444.291 177.224 433.472 185.11C425.577 190.609 417.234 195.432 408.531 199.529L410.944 187.101Z" fill="#EE6F57"/>
<path d="M408.147 200.577C408.147 200.577 410.454 193.939 404.434 181.446C398.414 168.952 394.291 161.53 394.291 161.53C394.291 161.53 384.346 175.139 389.716 187.42C393.768 196.152 398.545 204.528 403.996 212.46L408.147 200.577Z" fill="#EE6F57"/>
<path d="M390.843 238.775C390.843 238.775 392.169 231.897 403.691 224.17C415.214 216.443 422.467 212.035 422.467 212.035C422.467 212.035 424.19 228.804 413.371 236.704C405.472 242.197 397.13 247.02 388.43 251.122L390.843 238.775Z" fill="#EE6F57"/>
<path d="M390.18 276.348C390.18 276.348 389.743 269.351 398.918 258.929C408.094 248.507 414.02 242.572 414.02 242.572C414.02 242.572 419.934 258.358 411.461 268.741C405.212 276.061 398.359 282.842 390.976 289.014L390.18 276.348Z" fill="#EE6F57"/>
<path d="M449.476 70.4256C447.592 77.5023 445.322 84.4698 442.674 91.2966C435.023 110.243 423.037 121.076 415.757 138.11C408.478 155.145 414.935 180.198 407.55 202.463C400.164 224.728 388.815 235.655 388.377 251.428C387.939 267.2 393.23 311.053 393.23 311.053" stroke="#263238" stroke-width="0.5" stroke-linecap="round" stroke-linejoin="round"/>
<path d="M444.384 88.1898L456.317 82.2551" stroke="#263238" stroke-width="0.5" stroke-linecap="round" stroke-linejoin="round"/>
<path d="M446.651 79.1083L443.827 70.5315" stroke="#263238" stroke-width="0.5" stroke-linecap="round" stroke-linejoin="round"/>
<path d="M416.487 137.407C416.487 137.407 426.458 132.587 436.654 127.808" stroke="#263238" stroke-width="0.5" stroke-linecap="round" stroke-linejoin="round"/>
<path d="M423.488 124.688C423.488 124.688 419.019 109.061 412.655 98.0411" stroke="#263238" stroke-width="0.5" stroke-linecap="round" stroke-linejoin="round"/>
<path d="M409.38 196.966C416.121 188.787 424.013 181.631 432.809 175.723" stroke="#263238" stroke-width="0.5" stroke-linecap="round" stroke-linejoin="round"/>
<path d="M405.8 206.3C404.372 199.569 402.385 192.97 399.86 186.571C396.253 178.1 395.723 176.985 395.723 176.985" stroke="#263238" stroke-width="0.5" stroke-linecap="round" stroke-linejoin="round"/>
<path d="M388.377 251.427C391.641 246.387 395.29 241.606 399.289 237.128C403.215 233.014 407.472 229.231 412.018 225.817" stroke="#263238" stroke-width="0.5" stroke-linecap="round" stroke-linejoin="round"/>
<path d="M390.976 288.948C391.496 283.626 393.422 278.539 396.558 274.21C401.543 267.904 407.444 259.54 409.817 256.234" stroke="#263238" stroke-width="0.5" stroke-linecap="round" stroke-linejoin="round"/>
<path d="M367.281 151.679C367.281 151.679 367.374 147.205 373.752 141.058C380.13 134.911 384.214 131.459 384.214 131.459C384.214 131.459 387.117 141.788 381.177 147.909C376.825 152.217 372.119 156.152 367.109 159.672L367.281 151.679Z" fill="#EE6F57"/>
<path d="M375.728 179.746C375.728 179.746 375.834 175.285 382.198 169.125C388.563 162.964 392.673 159.526 392.673 159.526C392.673 159.526 395.564 169.855 389.637 175.989C385.279 180.292 380.569 184.223 375.555 187.739L375.728 179.746Z" fill="#EE6F57"/>
<path d="M367.507 159.287C367.507 159.287 367.136 154.839 360.387 149.13C353.638 143.421 349.342 140.208 349.342 140.208C349.342 140.208 347.088 150.71 353.399 156.446C358.017 160.467 362.962 164.095 368.183 167.293L367.507 159.287Z" fill="#EE6F57"/>
<path d="M377.743 192.439C377.743 192.439 376.894 188.057 369.589 183.145C362.283 178.233 357.655 175.431 357.655 175.431C357.655 175.431 356.528 186.053 363.397 191.151C368.411 194.685 373.711 197.794 379.241 200.445L377.743 192.439Z" fill="#EE6F57"/>
<path d="M374.906 228.286C374.906 228.286 374.998 223.825 368.899 217.439C362.8 211.053 358.862 207.402 358.862 207.402C358.862 207.402 355.521 217.598 361.169 223.971C365.338 228.459 369.875 232.589 374.733 236.319L374.906 228.286Z" fill="#EE6F57"/>
<path d="M374.826 237.049C374.826 237.049 374.282 232.628 379.732 225.657C385.182 218.687 388.722 214.691 388.722 214.691C388.722 214.691 393.058 224.502 388.059 231.406C384.358 236.286 380.255 240.847 375.794 245.041L374.826 237.049Z" fill="#EE6F57"/>
<path d="M380.103 274.25C380.103 274.25 381.429 269.988 389.292 265.926C397.155 261.863 402.034 259.672 402.034 259.672C402.034 259.672 401.915 270.4 394.503 274.595C389.108 277.501 383.48 279.948 377.677 281.911L380.103 274.25Z" fill="#EE6F57"/>
<path d="M380.421 263.151C380.421 263.151 380.514 258.69 374.402 252.304C368.289 245.918 364.364 242.266 364.364 242.266C364.364 242.266 361.023 252.463 366.685 258.836C370.854 263.324 375.391 267.454 380.249 271.183L380.421 263.151Z" fill="#EE6F57"/>
<path d="M375.741 286.597C375.741 286.597 376.961 282.309 372.678 274.582C368.395 266.855 365.505 262.328 365.505 262.328C365.505 262.328 359.684 271.342 363.556 278.95C366.448 284.354 369.788 289.506 373.54 294.351L375.741 286.597Z" fill="#EE6F57"/>
<path d="M366.711 150.511C366.926 155.166 367.395 159.807 368.117 164.411C370.318 177.223 376.298 185.654 378.525 197.178C380.753 208.703 373.341 223.453 374.919 238.336C376.497 253.22 382.066 261.531 380.223 271.382C378.38 281.233 369.164 307.8 369.164 307.8" stroke="#263238" stroke-width="0.5" stroke-linecap="round" stroke-linejoin="round"/>
<path d="M367.507 162.248L360.891 156.937" stroke="#263238" stroke-width="0.5" stroke-linecap="round" stroke-linejoin="round"/>
<path d="M367.321 156.299L370.238 151.347" stroke="#263238" stroke-width="0.5" stroke-linecap="round" stroke-linejoin="round"/>
<path d="M378.181 196.634C378.181 196.634 372.651 192.293 366.95 187.938" stroke="#263238" stroke-width="0.5" stroke-linecap="round" stroke-linejoin="round"/>
<path d="M375.555 187.779C378.482 182.404 381.947 177.342 385.898 172.67" stroke="#263238" stroke-width="0.5" stroke-linecap="round" stroke-linejoin="round"/>
<path d="M374.548 234.606C371.464 228.605 367.525 223.086 362.853 218.222" stroke="#263238" stroke-width="0.5" stroke-linecap="round" stroke-linejoin="round"/>
<path d="M375.516 240.925C377.307 236.937 379.427 233.104 381.853 229.468C385.248 224.688 385.725 224.064 385.725 224.064" stroke="#263238" stroke-width="0.5" stroke-linecap="round" stroke-linejoin="round"/>
<path d="M378.446 278.751C381.422 276.261 384.612 274.039 387.979 272.112C390.079 271.122 392.092 269.958 393.999 268.634" stroke="#263238" stroke-width="0.5" stroke-linecap="round" stroke-linejoin="round"/>
<path d="M380.236 271.356C378.892 267.776 377.274 264.305 375.396 260.974C373.51 257.886 371.372 254.96 369.005 252.224" stroke="#263238" stroke-width="0.5" stroke-linecap="round" stroke-linejoin="round"/>
<path d="M373.54 294.351C373.943 290.973 373.435 287.548 372.068 284.433C369.827 279.84 367.295 273.812 366.247 271.462" stroke="#263238" stroke-width="0.5" stroke-linecap="round" stroke-linejoin="round"/>
<path d="M46.9245 245.068C46.9245 245.068 44.8296 239 33.4266 233.464C22.0236 227.927 14.8636 224.953 14.8636 224.953C14.8636 224.953 15.4471 240.354 26.2401 246.103C34.0868 250.07 42.2522 253.37 50.6504 255.968L46.9245 245.068Z" fill="#EE6F57"/>
<path d="M47.7068 287.155C47.7068 287.155 45.6118 281.101 34.2089 275.551C22.8059 270.002 15.6459 267.041 15.6459 267.041C15.6459 267.041 16.2293 282.442 27.0223 288.204C34.8709 292.163 43.0361 295.458 51.4327 298.056L47.7068 287.155Z" fill="#EE6F57"/>
<path d="M49.9609 255.57C49.9609 255.57 48.5156 249.316 55.2646 238.549C62.0136 227.781 66.4421 221.488 66.4421 221.488C66.4421 221.488 74.1193 234.845 68.0333 245.466C63.4906 252.999 58.3234 260.136 52.5862 266.802L49.9609 255.57Z" fill="#EE6F57"/>
<path d="M50.5443 305.397C50.5443 305.397 49.762 299.025 57.5717 289.027C65.3814 279.03 70.473 273.241 70.473 273.241C70.473 273.241 76.7181 287.328 69.5448 297.246C64.234 304.256 58.3486 310.811 51.9498 316.842L50.5443 305.397Z" fill="#EE6F57"/>
<path d="M70.168 353.14C70.168 353.14 68.0731 347.086 73.6154 335.668C79.1578 324.25 82.8969 317.519 82.8969 317.519C82.8969 317.519 91.953 329.986 87.0205 341.191C83.2991 349.161 78.917 356.804 73.9204 364.041L70.168 353.14Z" fill="#EE6F57"/>
<path d="M74.1458 365.076C74.1458 365.076 72.9259 358.783 62.4246 351.667C51.9233 344.55 45.3069 340.621 45.3069 340.621C45.3069 340.621 43.6893 355.942 53.5674 363.191C60.7681 368.245 68.379 372.686 76.3203 376.468L74.1458 365.076Z" fill="#EE6F57"/>
<path d="M77.9645 403.221C77.9645 403.221 75.8695 397.153 81.4119 385.735C86.9542 374.317 90.6934 367.586 90.6934 367.586C90.6934 367.586 99.7494 380.053 94.817 391.258C91.0896 399.232 86.7032 406.879 81.7036 414.121L77.9645 403.221Z" fill="#EE6F57"/>
<path d="M94.6711 433.2C94.6711 433.2 91.1044 427.889 93.5839 415.422C96.0633 402.955 97.9992 395.507 97.9992 395.507C97.9992 395.507 109.933 405.279 107.957 417.36C106.373 426.018 104.067 434.527 101.062 442.799L94.6711 433.2Z" fill="#EE6F57"/>
<path d="M47.1632 243.249C48.9201 249.703 50.3189 256.25 51.3531 262.859C54.005 281.34 49.4703 295.413 51.5388 312.222C53.6072 329.03 70.1017 345.852 74.5436 366.842C78.9854 387.833 74.9679 401.707 81.8229 414.346C88.678 426.986 112.969 459.248 112.969 459.248" stroke="#263238" stroke-width="0.5" stroke-linecap="round" stroke-linejoin="round"/>
<path d="M51.2603 259.619L57.9695 249.449" stroke="#263238" stroke-width="0.5" stroke-linecap="round" stroke-linejoin="round"/>
<path d="M48.9002 251.401L42.7213 245.917" stroke="#263238" stroke-width="0.5" stroke-linecap="round" stroke-linejoin="round"/>
<path d="M51.7774 311.332C51.7774 311.332 57.4391 302.941 63.313 294.484" stroke="#263238" stroke-width="0.5" stroke-linecap="round" stroke-linejoin="round"/>
<path d="M51.4724 298.056C51.4724 298.056 40.7854 287.713 30.7084 281.977" stroke="#263238" stroke-width="0.5" stroke-linecap="round" stroke-linejoin="round"/>
<path d="M73.4563 361.651C75.0324 352.09 77.9893 342.81 82.2339 334.102" stroke="#263238" stroke-width="0.5" stroke-linecap="round" stroke-linejoin="round"/>
<path d="M74.9015 370.666C70.6951 366.009 66.1093 361.71 61.1915 357.814C54.4558 352.769 53.5276 352.132 53.5276 352.132" stroke="#263238" stroke-width="0.5" stroke-linecap="round" stroke-linejoin="round"/>
<path d="M81.8096 414.346C82.0867 408.863 82.7782 403.408 83.8781 398.029C85.1003 392.996 86.7322 388.072 88.7575 383.305" stroke="#263238" stroke-width="0.5" stroke-linecap="round" stroke-linejoin="round"/>
<path d="M101.062 442.799C99.0353 438.355 98.2253 433.452 98.7152 428.592C99.7759 421.317 100.598 411.997 100.969 408.292" stroke="#263238" stroke-width="0.5" stroke-linecap="round" stroke-linejoin="round"/>
<path d="M19.4248 345.214C19.4248 345.214 17.4492 341.643 19.69 333.876C21.9308 326.109 23.5617 321.489 23.5617 321.489C23.5617 321.489 30.5891 328.326 28.7063 335.881C27.2343 341.285 25.3138 346.557 22.965 351.64L19.4248 345.214Z" fill="#EE6F57"/>
<path d="M38.969 363.51C38.969 363.51 37.0066 359.938 39.2341 352.171C41.4617 344.404 43.1058 339.784 43.1058 339.784C43.1058 339.784 50.1332 346.622 48.2504 354.176C46.7865 359.581 44.8704 364.853 42.5224 369.936L38.969 363.51Z" fill="#EE6F57"/>
<path d="M23.0976 351.123C23.0976 351.123 20.764 347.777 12.8084 346.369C4.85289 344.962 0 344.391 0 344.391C0 344.391 3.03637 353.685 10.6074 355.358C16.1033 356.419 21.6786 357.014 27.2743 357.137L23.0976 351.123Z" fill="#EE6F57"/>
<path d="M46.3809 372.684C46.3809 372.684 43.729 369.604 35.6541 369.046C27.5792 368.489 22.6998 368.436 22.6998 368.436C22.6998 368.436 26.6776 377.384 34.4343 378.221C40.0068 378.685 45.6082 378.685 51.1807 378.221L46.3809 372.684Z" fill="#EE6F57"/>
<path d="M60.5683 402.251C60.5683 402.251 58.5927 398.68 50.8493 396.436C43.1059 394.192 38.306 393.117 38.306 393.117C38.306 393.117 40.3479 402.716 47.7333 405.146C53.0831 406.781 58.5608 407.962 64.1085 408.677L60.5683 402.251Z" fill="#EE6F57"/>
<path d="M64.5195 409.208C64.5195 409.208 62.0666 405.956 63.1936 397.963C64.3206 389.97 65.2753 385.138 65.2753 385.138C65.2753 385.138 73.2309 390.9 72.4088 398.667C71.7225 404.224 70.5693 409.713 68.9614 415.077L64.5195 409.208Z" fill="#EE6F57"/>
<path d="M85.7344 436.174C85.7344 436.174 84.8593 432.191 89.1818 425.38C93.5043 418.569 96.3816 414.572 96.3816 414.572C96.3816 414.572 101.208 423.123 97.2699 429.841C94.3411 434.614 91.0144 439.131 87.3255 443.343L85.7344 436.174Z" fill="#EE6F57"/>
<path d="M80.8948 427.264C80.8948 427.264 78.9324 423.693 71.1757 421.463C63.4191 419.232 58.6457 418.13 58.6457 418.13C58.6457 418.13 60.6744 427.729 68.073 430.172C73.4219 431.823 78.8994 433.022 84.4482 433.757L80.8948 427.264Z" fill="#EE6F57"/>
<path d="M87.9487 447.95C87.9487 447.95 86.9542 443.967 79.9931 439.864C73.032 435.762 68.7095 433.465 68.7095 433.465C68.7095 433.465 68.2454 443.263 74.7822 447.498C79.5432 450.435 84.5417 452.966 89.7254 455.066L87.9487 447.95Z" fill="#EE6F57"/>
<path d="M18.4702 344.551C20.7753 348.126 23.2717 351.574 25.9484 354.88C33.5592 364.001 42.1247 367.865 49.1919 375.99C56.259 384.115 57.1474 399.145 65.1825 410.151C73.2176 421.157 81.4782 425.194 84.5145 433.837C87.5509 442.48 92.4701 467.692 92.4701 467.692" stroke="#263238" stroke-width="0.5" stroke-linecap="round" stroke-linejoin="round"/>
<path d="M24.4501 353.473L16.7863 352.304" stroke="#263238" stroke-width="0.5" stroke-linecap="round" stroke-linejoin="round"/>
<path d="M21.5728 348.839L21.6118 343.595" stroke="#263238" stroke-width="0.5" stroke-linecap="round" stroke-linejoin="round"/>
<path d="M48.6482 375.738C48.6482 375.738 42.2838 374.848 35.7867 374.025" stroke="#263238" stroke-width="0.5" stroke-linecap="round" stroke-linejoin="round"/>
<path d="M42.5225 369.936C42.3662 364.349 42.7839 358.761 43.7688 353.26" stroke="#263238" stroke-width="0.5" stroke-linecap="round" stroke-linejoin="round"/>
<path d="M63.1936 407.429C58.0019 404.105 52.3567 401.552 46.4339 399.848" stroke="#263238" stroke-width="0.5" stroke-linecap="round" stroke-linejoin="round"/>
<path d="M66.8399 411.957C66.4263 407.988 66.3465 403.99 66.6013 400.008C67.0919 394.697 67.1847 393.967 67.1847 393.967" stroke="#263238" stroke-width="0.5" stroke-linecap="round" stroke-linejoin="round"/>
<path d="M86.4902 440.488C87.68 437.147 89.1619 433.917 90.9188 430.836C92.1188 429.082 93.1784 427.235 94.0877 425.313" stroke="#263238" stroke-width="0.5" stroke-linecap="round" stroke-linejoin="round"/>
<path d="M84.5145 433.837C81.8121 431.628 78.9441 429.631 75.9358 427.862C73.0255 426.291 69.9924 424.959 66.8664 423.879" stroke="#263238" stroke-width="0.5" stroke-linecap="round" stroke-linejoin="round"/>
<path d="M89.752 455.066C88.5171 452.211 86.5445 449.736 84.0372 447.897C80.1655 445.308 75.4054 441.723 73.4298 440.329" stroke="#263238" stroke-width="0.5" stroke-linecap="round" stroke-linejoin="round"/>
<path d="M398.852 265.939H305.493C302.191 265.939 299.513 268.62 299.513 271.927V473.561C299.513 476.868 302.191 479.548 305.493 479.548H398.852C402.154 479.548 404.832 476.868 404.832 473.561V271.927C404.832 268.62 402.154 265.939 398.852 265.939Z" fill="white" stroke="#263238" stroke-width="1.01" stroke-linecap="round" stroke-linejoin="round"/>
<path d="M396.028 293.966H308.331C305.028 293.966 302.351 296.647 302.351 299.954V468.463C302.351 471.77 305.028 474.45 308.331 474.45H396.028C399.33 474.45 402.008 471.77 402.008 468.463V299.954C402.008 296.647 399.33 293.966 396.028 293.966Z" fill="#EE6F57"/>
<path opacity="0.5" d="M396.028 293.966H308.331C305.028 293.966 302.351 296.647 302.351 299.954V468.463C302.351 471.77 305.028 474.45 308.331 474.45H396.028C399.33 474.45 402.008 471.77 402.008 468.463V299.954C402.008 296.647 399.33 293.966 396.028 293.966Z" fill="white"/>
<path d="M377.239 219.868H327.132V265.939H377.239V219.868Z" fill="#263238" stroke="#263238" stroke-width="1.01" stroke-linecap="round" stroke-linejoin="round"/>
<path d="M331.309 224.422V260.973" stroke="white" stroke-width="1.01" stroke-linecap="round" stroke-linejoin="round"/>
<path d="M339.053 224.422V260.973" stroke="white" stroke-width="1.01" stroke-linecap="round" stroke-linejoin="round"/>
<path d="M350.111 236.053V260.973" stroke="white" stroke-width="1.01" stroke-linecap="round" stroke-linejoin="round"/>
<path d="M350.111 224.422V230.516" stroke="white" stroke-width="1.01" stroke-linecap="round" stroke-linejoin="round"/>
<path d="M398.825 311.266H305.533V414.36H398.825V311.266Z" fill="white"/>
<path d="M351.556 400.074C370.639 400.074 386.11 384.583 386.11 365.475C386.11 346.366 370.639 330.875 351.556 330.875C332.473 330.875 317.002 346.366 317.002 365.475C317.002 384.583 332.473 400.074 351.556 400.074Z" fill="#263238"/>
<path d="M357.881 341.67H345.231V389.28H357.881V341.67Z" fill="#EE6F57"/>
<path d="M375.33 371.808V359.142H327.782V371.808H375.33Z" fill="#EE6F57"/>
<path d="M497.421 381.845H350.548C347.07 381.845 344.25 384.668 344.25 388.151V473.694C344.25 477.177 347.07 480 350.548 480H497.421C500.9 480 503.719 477.177 503.719 473.694V388.151C503.719 384.668 500.9 381.845 497.421 381.845Z" fill="white" stroke="#263238" stroke-linecap="round" stroke-linejoin="round"/>
<path d="M359.512 424.463C357.95 424.463 356.453 423.842 355.349 422.737C354.245 421.631 353.624 420.132 353.624 418.568V402.636C353.623 401.861 353.774 401.093 354.069 400.376C354.364 399.66 354.797 399.008 355.344 398.459C355.891 397.911 356.54 397.475 357.256 397.178C357.971 396.881 358.737 396.728 359.512 396.728C361.076 396.728 362.577 397.351 363.684 398.459C364.79 399.567 365.412 401.069 365.412 402.636V418.568C365.412 419.344 365.259 420.111 364.963 420.827C364.666 421.543 364.231 422.194 363.683 422.741C363.135 423.289 362.484 423.723 361.769 424.018C361.053 424.314 360.286 424.465 359.512 424.463Z" fill="#263238" stroke="#263238" stroke-width="1.01" stroke-linecap="round" stroke-linejoin="round"/>
<path d="M363.503 402.092V411.97" stroke="white" stroke-width="1.01" stroke-linecap="round" stroke-linejoin="round"/>
<path d="M363.503 414.519V419.936" stroke="white" stroke-width="1.01" stroke-linecap="round" stroke-linejoin="round"/>
<path d="M385.274 424.463C383.713 424.463 382.216 423.842 381.112 422.737C380.007 421.631 379.387 420.132 379.387 418.568V402.636C379.385 401.861 379.536 401.093 379.832 400.376C380.127 399.66 380.56 399.008 381.107 398.459C381.654 397.911 382.303 397.475 383.018 397.178C383.734 396.881 384.5 396.728 385.274 396.728C386.049 396.728 386.815 396.881 387.53 397.178C388.245 397.475 388.895 397.911 389.442 398.459C389.989 399.008 390.422 399.66 390.717 400.376C391.012 401.093 391.163 401.861 391.161 402.636V418.568C391.161 420.132 390.541 421.631 389.437 422.737C388.333 423.842 386.836 424.463 385.274 424.463Z" fill="#263238" stroke="#263238" stroke-width="1.01" stroke-linecap="round" stroke-linejoin="round"/>
<path d="M389.279 402.092V411.97" stroke="white" stroke-width="1.01" stroke-linecap="round" stroke-linejoin="round"/>
<path d="M389.279 414.519V419.936" stroke="white" stroke-width="1.01" stroke-linecap="round" stroke-linejoin="round"/>
<path d="M411.09 424.463C409.529 424.463 408.031 423.842 406.927 422.737C405.823 421.631 405.203 420.132 405.203 418.568V402.636C405.201 401.861 405.352 401.093 405.647 400.376C405.942 399.66 406.376 399.008 406.923 398.459C407.469 397.911 408.119 397.475 408.834 397.178C409.549 396.881 410.316 396.728 411.09 396.728C411.864 396.728 412.631 396.881 413.346 397.178C414.061 397.475 414.711 397.911 415.258 398.459C415.804 399.008 416.238 399.66 416.533 400.376C416.828 401.093 416.979 401.861 416.977 402.636V418.568C416.977 420.132 416.357 421.631 415.253 422.737C414.149 423.842 412.651 424.463 411.09 424.463Z" fill="#263238" stroke="#263238" stroke-width="1.01" stroke-linecap="round" stroke-linejoin="round"/>
<path d="M415.068 402.092V411.97" stroke="white" stroke-width="1.01" stroke-linecap="round" stroke-linejoin="round"/>
<path d="M415.068 414.519V419.936" stroke="white" stroke-width="1.01" stroke-linecap="round" stroke-linejoin="round"/>
<path d="M436.879 424.463C435.318 424.463 433.821 423.842 432.717 422.737C431.613 421.631 430.992 420.132 430.992 418.568V402.636C430.991 401.861 431.141 401.093 431.437 400.376C431.732 399.66 432.165 399.008 432.712 398.459C433.259 397.911 433.908 397.475 434.623 397.178C435.339 396.881 436.105 396.728 436.879 396.728C437.654 396.728 438.42 396.881 439.135 397.178C439.85 397.475 440.5 397.911 441.047 398.459C441.594 399.008 442.027 399.66 442.322 400.376C442.617 401.093 442.768 401.861 442.766 402.636V418.568C442.766 420.132 442.146 421.631 441.042 422.737C439.938 423.842 438.441 424.463 436.879 424.463Z" fill="#263238" stroke="#263238" stroke-width="1.01" stroke-linecap="round" stroke-linejoin="round"/>
<path d="M440.857 402.092V411.97" stroke="white" stroke-width="1.01" stroke-linecap="round" stroke-linejoin="round"/>
<path d="M440.857 414.519V419.936" stroke="white" stroke-width="1.01" stroke-linecap="round" stroke-linejoin="round"/>
<path d="M462.669 424.463C461.894 424.465 461.127 424.314 460.412 424.018C459.696 423.723 459.045 423.289 458.497 422.741C457.949 422.194 457.514 421.543 457.218 420.827C456.921 420.111 456.768 419.344 456.768 418.568V402.636C456.768 401.069 457.39 399.567 458.496 398.459C459.603 397.351 461.104 396.728 462.669 396.728C463.443 396.728 464.209 396.881 464.925 397.178C465.64 397.475 466.289 397.911 466.836 398.459C467.383 399.008 467.816 399.66 468.111 400.376C468.407 401.093 468.557 401.861 468.556 402.636V418.568C468.556 420.132 467.935 421.631 466.831 422.737C465.727 423.842 464.23 424.463 462.669 424.463Z" fill="#263238" stroke="#263238" stroke-width="1.01" stroke-linecap="round" stroke-linejoin="round"/>
<path d="M466.646 402.092V411.97" stroke="white" stroke-width="1.01" stroke-linecap="round" stroke-linejoin="round"/>
<path d="M466.646 414.519V419.936" stroke="white" stroke-width="1.01" stroke-linecap="round" stroke-linejoin="round"/>
<path d="M488.445 424.463C486.883 424.463 485.386 423.842 484.282 422.737C483.178 421.631 482.558 420.132 482.558 418.568V402.636C482.556 401.861 482.707 401.093 483.002 400.376C483.297 399.66 483.73 399.008 484.277 398.459C484.824 397.911 485.474 397.475 486.189 397.178C486.904 396.881 487.67 396.728 488.445 396.728C489.219 396.728 489.985 396.881 490.701 397.178C491.416 397.475 492.065 397.911 492.612 398.459C493.159 399.008 493.592 399.66 493.887 400.376C494.182 401.093 494.333 401.861 494.332 402.636V418.568C494.332 420.132 493.712 421.631 492.607 422.737C491.503 423.842 490.006 424.463 488.445 424.463Z" fill="#263238" stroke="#263238" stroke-width="1.01" stroke-linecap="round" stroke-linejoin="round"/>
<path d="M492.422 402.092V411.97" stroke="white" stroke-width="1.01" stroke-linecap="round" stroke-linejoin="round"/>
<path d="M492.422 414.519V419.936" stroke="white" stroke-width="1.01" stroke-linecap="round" stroke-linejoin="round"/>
<path d="M359.512 466.79C357.95 466.79 356.453 466.169 355.349 465.063C354.245 463.958 353.624 462.458 353.624 460.895V444.963C353.624 443.4 354.245 441.9 355.349 440.795C356.453 439.689 357.95 439.068 359.512 439.068C360.286 439.066 361.053 439.218 361.769 439.513C362.484 439.808 363.135 440.242 363.683 440.79C364.231 441.338 364.666 441.988 364.963 442.704C365.259 443.42 365.412 444.188 365.412 444.963V460.895C365.412 461.67 365.259 462.438 364.963 463.154C364.666 463.87 364.231 464.521 363.683 465.068C363.135 465.616 362.484 466.05 361.769 466.345C361.053 466.641 360.286 466.792 359.512 466.79Z" fill="#263238" stroke="#263238" stroke-width="1.01" stroke-linecap="round" stroke-linejoin="round"/>
<path d="M363.503 444.485V454.363" stroke="white" stroke-width="1.01" stroke-linecap="round" stroke-linejoin="round"/>
<path d="M363.503 456.912V462.329" stroke="white" stroke-width="1.01" stroke-linecap="round" stroke-linejoin="round"/>
<path d="M385.274 466.79C383.713 466.79 382.216 466.169 381.111 465.063C380.007 463.958 379.387 462.458 379.387 460.895V444.963C379.387 443.4 380.007 441.9 381.111 440.795C382.216 439.689 383.713 439.068 385.274 439.068C386.048 439.066 386.814 439.218 387.529 439.513C388.244 439.809 388.894 440.243 389.441 440.791C389.988 441.339 390.422 441.989 390.717 442.705C391.012 443.421 391.163 444.188 391.161 444.963V460.895C391.163 461.67 391.012 462.437 390.717 463.153C390.422 463.869 389.988 464.52 389.441 465.067C388.894 465.615 388.244 466.049 387.529 466.345C386.814 466.64 386.048 466.792 385.274 466.79Z" fill="#263238" stroke="#263238" stroke-width="1.01" stroke-linecap="round" stroke-linejoin="round"/>
<path d="M389.279 444.485V454.363" stroke="white" stroke-width="1.01" stroke-linecap="round" stroke-linejoin="round"/>
<path d="M389.279 456.912V462.329" stroke="white" stroke-width="1.01" stroke-linecap="round" stroke-linejoin="round"/>
<path d="M411.09 466.79C409.529 466.79 408.031 466.169 406.927 465.063C405.823 463.958 405.203 462.458 405.203 460.895V444.963C405.203 443.4 405.823 441.9 406.927 440.795C408.031 439.689 409.529 439.068 411.09 439.068C412.651 439.068 414.149 439.689 415.253 440.795C416.357 441.9 416.977 443.4 416.977 444.963V460.895C416.977 462.458 416.357 463.958 415.253 465.063C414.149 466.169 412.651 466.79 411.09 466.79Z" fill="#263238" stroke="#263238" stroke-width="1.01" stroke-linecap="round" stroke-linejoin="round"/>
<path d="M415.068 444.485V454.363" stroke="white" stroke-width="1.01" stroke-linecap="round" stroke-linejoin="round"/>
<path d="M415.068 456.912V462.329" stroke="white" stroke-width="1.01" stroke-linecap="round" stroke-linejoin="round"/>
<path d="M436.879 466.79C436.106 466.792 435.339 466.64 434.624 466.345C433.909 466.049 433.26 465.615 432.713 465.067C432.166 464.52 431.732 463.869 431.437 463.153C431.142 462.437 430.991 461.67 430.992 460.895V444.963C430.991 444.188 431.142 443.421 431.437 442.705C431.732 441.989 432.166 441.339 432.713 440.791C433.26 440.243 433.909 439.809 434.624 439.513C435.339 439.218 436.106 439.066 436.879 439.068C438.441 439.068 439.938 439.689 441.042 440.795C442.146 441.9 442.766 443.4 442.766 444.963V460.895C442.766 462.458 442.146 463.958 441.042 465.063C439.938 466.169 438.441 466.79 436.879 466.79Z" fill="#263238" stroke="#263238" stroke-width="1.01" stroke-linecap="round" stroke-linejoin="round"/>
<path d="M440.857 444.485V454.363" stroke="white" stroke-width="1.01" stroke-linecap="round" stroke-linejoin="round"/>
<path d="M440.857 456.912V462.329" stroke="white" stroke-width="1.01" stroke-linecap="round" stroke-linejoin="round"/>
<path d="M462.669 466.79C461.894 466.792 461.127 466.641 460.412 466.345C459.696 466.05 459.045 465.616 458.497 465.068C457.949 464.521 457.514 463.87 457.218 463.154C456.921 462.438 456.768 461.67 456.768 460.895V444.963C456.768 444.188 456.921 443.42 457.218 442.704C457.514 441.988 457.949 441.338 458.497 440.79C459.045 440.242 459.696 439.808 460.412 439.513C461.127 439.218 461.894 439.066 462.669 439.068C464.23 439.068 465.727 439.689 466.831 440.795C467.935 441.9 468.556 443.4 468.556 444.963V460.895C468.556 462.458 467.935 463.958 466.831 465.063C465.727 466.169 464.23 466.79 462.669 466.79Z" fill="#263238" stroke="#263238" stroke-width="1.01" stroke-linecap="round" stroke-linejoin="round"/>
<path d="M466.646 444.485V454.363" stroke="white" stroke-width="1.01" stroke-linecap="round" stroke-linejoin="round"/>
<path d="M466.646 456.912V462.329" stroke="white" stroke-width="1.01" stroke-linecap="round" stroke-linejoin="round"/>
<path d="M488.445 466.79C486.883 466.79 485.386 466.169 484.282 465.063C483.178 463.958 482.558 462.458 482.558 460.895V444.963C482.558 443.4 483.178 441.9 484.282 440.795C485.386 439.689 486.883 439.068 488.445 439.068C489.218 439.066 489.985 439.218 490.7 439.513C491.415 439.809 492.064 440.243 492.611 440.791C493.158 441.339 493.592 441.989 493.887 442.705C494.182 443.421 494.333 444.188 494.332 444.963V460.895C494.333 461.67 494.182 462.437 493.887 463.153C493.592 463.869 493.158 464.52 492.611 465.067C492.064 465.615 491.415 466.049 490.7 466.345C489.985 466.64 489.218 466.792 488.445 466.79Z" fill="#263238" stroke="#263238" stroke-width="1.01" stroke-linecap="round" stroke-linejoin="round"/>
<path d="M492.422 444.485V454.363" stroke="white" stroke-width="1.01" stroke-linecap="round" stroke-linejoin="round"/>
<path d="M492.422 456.912V462.329" stroke="white" stroke-width="1.01" stroke-linecap="round" stroke-linejoin="round"/>
<path d="M372.559 386.944V390.263" stroke="#263238" stroke-width="0.5" stroke-linecap="round" stroke-linejoin="round"/>
<path d="M372.559 396.423V467.254" stroke="#263238" stroke-width="0.5" stroke-linecap="round" stroke-linejoin="round" stroke-dasharray="4.64 4.64"/>
<path d="M372.559 470.334V473.654" stroke="#263238" stroke-width="0.5" stroke-linecap="round" stroke-linejoin="round"/>
<path d="M398.348 386.944V390.263" stroke="#263238" stroke-width="0.5" stroke-linecap="round" stroke-linejoin="round"/>
<path d="M398.348 396.423V467.254" stroke="#263238" stroke-width="0.5" stroke-linecap="round" stroke-linejoin="round" stroke-dasharray="4.64 4.64"/>
<path d="M398.348 470.334V473.654" stroke="#263238" stroke-width="0.5" stroke-linecap="round" stroke-linejoin="round"/>
<path d="M424.137 386.944V390.263" stroke="#263238" stroke-width="0.5" stroke-linecap="round" stroke-linejoin="round"/>
<path d="M424.137 396.423V467.254" stroke="#263238" stroke-width="0.5" stroke-linecap="round" stroke-linejoin="round" stroke-dasharray="4.64 4.64"/>
<path d="M424.137 470.334V473.654" stroke="#263238" stroke-width="0.5" stroke-linecap="round" stroke-linejoin="round"/>
<path d="M449.913 386.944V390.263" stroke="#263238" stroke-width="0.5" stroke-linecap="round" stroke-linejoin="round"/>
<path d="M449.913 396.423V467.254" stroke="#263238" stroke-width="0.5" stroke-linecap="round" stroke-linejoin="round" stroke-dasharray="4.64 4.64"/>
<path d="M449.913 470.334V473.654" stroke="#263238" stroke-width="0.5" stroke-linecap="round" stroke-linejoin="round"/>
<path d="M475.702 386.944V390.263" stroke="#263238" stroke-width="0.5" stroke-linecap="round" stroke-linejoin="round"/>
<path d="M475.702 396.423V467.254" stroke="#263238" stroke-width="0.5" stroke-linecap="round" stroke-linejoin="round" stroke-dasharray="4.64 4.64"/>
<path d="M475.702 470.334V473.654" stroke="#263238" stroke-width="0.5" stroke-linecap="round" stroke-linejoin="round"/>
<path d="M348.361 430.929H498.946" stroke="#263238" stroke-width="0.5" stroke-linecap="round" stroke-linejoin="round" stroke-dasharray="5 5"/>
<path d="M492.33 395.427V373.746H457.312V395.427L448.919 406.938C447.739 408.567 447.103 410.528 447.102 412.541V479.549H502.486V412.514C502.486 410.502 501.85 408.541 500.67 406.912L492.33 395.427Z" fill="#263238" stroke="#263238" stroke-width="1.01" stroke-linecap="round" stroke-linejoin="round"/>
<path d="M492.343 363.802H457.458V367.559H492.343V363.802Z" fill="#263238" stroke="#263238" stroke-width="1.01" stroke-linecap="round" stroke-linejoin="round"/>
<path d="M497.408 355.265H452.22V364.891H497.408V355.265Z" fill="#EE6F57" stroke="#263238" stroke-width="1.01" stroke-linecap="round" stroke-linejoin="round"/>
<path d="M495.724 367.374H453.904C452.974 367.374 452.22 368.128 452.22 369.06V373.335C452.22 374.266 452.974 375.021 453.904 375.021H495.724C496.654 375.021 497.408 374.266 497.408 373.335V369.06C497.408 368.128 496.654 367.374 495.724 367.374Z" fill="#263238" stroke="#263238" stroke-width="1.01" stroke-linecap="round" stroke-linejoin="round"/>
<path d="M482.915 416.643H447.115V461.28H482.915V416.643Z" fill="#EE6F57" stroke="#263238" stroke-width="1.01" stroke-linecap="round" stroke-linejoin="round"/>
<path d="M271.656 60.2553H95.6921C85.0592 60.2553 76.4396 68.8863 76.4396 79.5331V460.071C76.4396 470.718 85.0592 479.349 95.6921 479.349H271.656C282.289 479.349 290.908 470.718 290.908 460.071V79.5331C290.908 68.8863 282.289 60.2553 271.656 60.2553Z" fill="#263238"/>
<path opacity="0.2" d="M94.8965 60.2553C89.9944 60.2553 85.2931 62.2052 81.8268 65.6761C78.3605 69.147 76.4131 73.8545 76.4131 78.7631V460.841C76.4106 463.549 77.0033 466.225 78.149 468.677C79.2947 471.13 80.9655 473.301 83.0428 475.034L208.17 60.2553H94.8965Z" fill="white"/>
<path d="M190.973 467.228C190.973 465.783 190.545 464.372 189.744 463.171C188.943 461.97 187.804 461.034 186.471 460.481C185.139 459.929 183.672 459.784 182.258 460.066C180.843 460.347 179.544 461.043 178.524 462.064C177.504 463.085 176.809 464.386 176.528 465.803C176.247 467.219 176.391 468.688 176.943 470.022C177.495 471.356 178.43 472.497 179.629 473.299C180.828 474.102 182.238 474.53 183.681 474.53C185.615 474.53 187.47 473.76 188.837 472.391C190.205 471.022 190.973 469.164 190.973 467.228V467.228Z" stroke="white" stroke-linecap="round" stroke-linejoin="round"/>
<path d="M271.656 60.2553H95.6921C85.0592 60.2553 76.4396 68.8863 76.4396 79.5331V460.071C76.4396 470.718 85.0592 479.349 95.6921 479.349H271.656C282.289 479.349 290.908 470.718 290.908 460.071V79.5331C290.908 68.8863 282.289 60.2553 271.656 60.2553Z" stroke="#263238" stroke-linecap="round" stroke-linejoin="round"/>
<path d="M281.388 88.7204H85.9863V454.482H281.388V88.7204Z" fill="#EE6F57"/>
<path d="M244.726 269.205L213.753 241.177L183.681 241.695L153.609 241.177L122.635 269.205L49.3907 317.505V460.018H179.809H187.552H317.97V317.505L244.726 269.205Z" fill="white" stroke="#263238" stroke-width="1.01" stroke-linecap="round" stroke-linejoin="round"/>
<path d="M181.175 374.636L167.822 393.595C167.822 393.595 183.734 386.372 199.061 380.119C214.389 373.866 233.655 354.136 237.977 346.927C242.3 339.718 248.585 329.123 248.585 329.123L229.332 314.266H250.03C250.03 314.266 249.539 291.696 243.294 273.361" stroke="#263238" stroke-width="1.01" stroke-linecap="round" stroke-linejoin="round"/>
<path d="M175.075 382.92C172.834 381.978 170.567 381.035 168.3 380.119C152.932 373.866 133.706 354.136 129.384 346.927C125.061 339.718 118.776 329.123 118.776 329.123L138.042 314.266H117.437C117.437 314.266 117.928 291.696 124.173 273.361" stroke="#263238" stroke-width="1.01" stroke-linecap="round" stroke-linejoin="round"/>
<path d="M150.943 243.302C150.943 243.302 144.963 338.377 181.175 374.636C181.175 374.636 219.374 348.374 219.374 244.444L150.943 243.302Z" fill="white"/>
<path d="M171.164 135.11H201.965C210.795 135.11 219.264 138.622 225.507 144.874C231.751 151.126 235.259 159.606 235.259 168.448V237.633C235.261 243.51 234.106 249.33 231.862 254.761C229.617 260.192 226.326 265.127 222.177 269.284C218.028 273.441 213.101 276.739 207.679 278.99C202.257 281.241 196.445 282.4 190.575 282.402H182.62C176.75 282.402 170.938 281.244 165.515 278.995C160.092 276.746 155.165 273.449 151.014 269.293C146.864 265.137 143.571 260.203 141.325 254.773C139.079 249.343 137.923 243.523 137.923 237.646V168.448C137.923 159.606 141.431 151.126 147.674 144.874C153.918 138.622 162.387 135.11 171.217 135.11H171.164Z" fill="#EE6F57"/>
<path opacity="0.5" d="M171.164 135.11H201.965C210.795 135.11 219.264 138.622 225.507 144.874C231.751 151.126 235.259 159.606 235.259 168.448V237.633C235.261 243.51 234.106 249.33 231.862 254.761C229.617 260.192 226.326 265.127 222.177 269.284C218.028 273.441 213.101 276.739 207.679 278.99C202.257 281.241 196.445 282.4 190.575 282.402H182.62C176.75 282.402 170.938 281.244 165.515 278.995C160.092 276.746 155.165 273.449 151.014 269.293C146.864 265.137 143.571 260.203 141.325 254.773C139.079 249.343 137.923 243.523 137.923 237.646V168.448C137.923 159.606 141.431 151.126 147.674 144.874C153.918 138.622 162.387 135.11 171.217 135.11H171.164Z" fill="white"/>
<path d="M150.943 243.302C150.943 243.302 144.963 338.377 181.175 374.636C181.175 374.636 219.374 348.374 219.374 244.444L150.943 243.302Z" stroke="#263238" stroke-width="1.01" stroke-linecap="round" stroke-linejoin="round"/>
<path d="M166.178 235.203C166.178 235.203 162.864 276.693 182.872 292.519C182.872 292.519 203.98 281.061 203.98 235.708L166.178 235.203Z" stroke="#263238" stroke-width="1.01" stroke-linecap="round" stroke-linejoin="round"/>
<path d="M159.496 305.544L182.872 292.519L209.112 310.682" stroke="#263238" stroke-width="1.01" stroke-linecap="round" stroke-linejoin="round"/>
<path d="M189.157 313.536L193.718 300.406L182.872 292.519L168.618 300.406L176.03 312.355L164.335 347.525C168.552 358.04 174.041 367.44 181.175 374.596C181.175 374.596 191.331 367.612 201.17 346.595L189.157 313.536Z" fill="#EE6F57" stroke="#263238" stroke-width="1.01" stroke-linecap="round" stroke-linejoin="round"/>
<path d="M235.88 385.221C246.266 383.525 253.313 373.72 251.619 363.321C249.926 352.921 240.134 345.865 229.748 347.561C219.362 349.256 212.316 359.061 214.009 369.461C215.702 379.86 225.494 386.916 235.88 385.221Z" fill="white" stroke="#263238" stroke-width="1.01" stroke-linecap="round" stroke-linejoin="round"/>
<path d="M245.463 371.597C248.339 364.592 244.999 356.577 238.003 353.697C231.007 350.817 223.003 354.161 220.127 361.166C217.25 368.172 220.59 376.186 227.586 379.066C234.583 381.947 242.586 378.603 245.463 371.597Z" fill="white" stroke="#263238" stroke-width="1.01" stroke-linecap="round" stroke-linejoin="round"/>
<path d="M232.793 369.312C232.019 369.312 231.277 369.004 230.73 368.456C230.183 367.908 229.876 367.165 229.876 366.391V254.295C229.876 253.52 230.183 252.777 230.73 252.23C231.277 251.682 232.019 251.374 232.793 251.374C233.566 251.374 234.308 251.682 234.855 252.23C235.403 252.777 235.71 253.52 235.71 254.295V366.391C235.712 366.775 235.637 367.155 235.491 367.511C235.345 367.866 235.131 368.188 234.859 368.46C234.588 368.732 234.266 368.947 233.911 369.093C233.556 369.239 233.176 369.313 232.793 369.312Z" fill="#263238"/>
<path d="M140.734 409.965H140.455C137.804 409.514 112.359 384.739 109.959 378.101C107.559 371.462 108.235 360.841 108.262 360.443C108.286 360.055 108.464 359.694 108.755 359.437C109.046 359.181 109.426 359.051 109.813 359.075C110.2 359.1 110.561 359.277 110.817 359.569C111.073 359.86 111.204 360.241 111.179 360.629C111.179 360.722 110.582 371.051 112.704 377.145C114.653 382.708 137.3 404.92 140.88 407.084C142.869 406.46 150.161 399.914 152.813 393.21C152.884 393.031 152.988 392.868 153.122 392.73C153.255 392.592 153.415 392.481 153.591 392.405C153.767 392.329 153.956 392.288 154.148 392.284C154.34 392.281 154.531 392.316 154.709 392.387C154.888 392.457 155.05 392.562 155.188 392.696C155.326 392.83 155.436 392.989 155.513 393.165C155.589 393.342 155.63 393.531 155.633 393.723C155.636 393.916 155.602 394.106 155.531 394.285C152.773 401.388 144.088 409.965 140.734 409.965Z" fill="white" stroke="#263238" stroke-width="1.01" stroke-linecap="round" stroke-linejoin="round"/>
<path d="M118.127 409.965C114.759 409.965 106.087 401.388 103.276 394.206C103.134 393.845 103.141 393.442 103.295 393.086C103.449 392.73 103.738 392.45 104.098 392.307C104.459 392.164 104.861 392.171 105.217 392.325C105.572 392.48 105.852 392.769 105.995 393.13C108.646 399.835 115.926 406.407 117.928 407.004C121.508 404.84 144.155 382.628 146.104 377.065C148.225 370.971 147.642 360.642 147.629 360.549C147.604 360.162 147.734 359.781 147.99 359.489C148.246 359.198 148.608 359.02 148.994 358.996C149.381 358.971 149.762 359.101 150.053 359.358C150.344 359.614 150.521 359.976 150.546 360.363C150.546 360.815 151.182 371.383 148.848 378.021C146.515 384.66 121.123 409.487 118.352 409.885L118.127 409.965Z" fill="white" stroke="#263238" stroke-width="1.01" stroke-linecap="round" stroke-linejoin="round"/>
<path d="M129.782 310.881C129.009 310.877 128.269 310.568 127.723 310.021C127.177 309.474 126.868 308.733 126.865 307.96V259.062C126.865 258.287 127.172 257.544 127.719 256.996C128.266 256.448 129.008 256.141 129.782 256.141C130.555 256.141 131.297 256.448 131.844 256.996C132.391 257.544 132.699 258.287 132.699 259.062V307.96C132.699 308.343 132.623 308.723 132.477 309.078C132.33 309.432 132.115 309.754 131.844 310.025C131.573 310.296 131.252 310.512 130.898 310.658C130.544 310.805 130.165 310.881 129.782 310.881Z" fill="#263238"/>
<path d="M148.835 366.338C148.063 366.334 147.323 366.025 146.776 365.478C146.23 364.931 145.922 364.19 145.918 363.417V328.233C145.918 323.79 144.155 319.528 141.017 316.386C137.879 313.243 133.623 311.478 129.185 311.478C124.747 311.478 120.491 313.243 117.353 316.386C114.215 319.528 112.452 323.79 112.452 328.233V363.39C112.452 364.165 112.144 364.908 111.597 365.456C111.05 366.003 110.308 366.311 109.535 366.311C108.761 366.311 108.019 366.003 107.472 365.456C106.925 364.908 106.618 364.165 106.618 363.39V328.207C106.618 322.221 108.993 316.48 113.22 312.247C117.447 308.014 123.18 305.636 129.158 305.636C135.137 305.636 140.87 308.014 145.097 312.247C149.324 316.48 151.699 322.221 151.699 328.207V363.39C151.703 364.159 151.405 364.899 150.869 365.45C150.334 366.002 149.603 366.32 148.835 366.338Z" fill="#263238"/>
<path d="M100.582 388.767L100.089 389.15C98.609 390.301 98.3411 392.437 99.4911 393.919L101.647 396.698C102.797 398.18 104.929 398.448 106.41 397.297L106.902 396.914C108.382 395.762 108.65 393.627 107.5 392.145L105.345 389.366C104.194 387.884 102.062 387.616 100.582 388.767Z" fill="white" stroke="#263238" stroke-width="1.01" stroke-linecap="round" stroke-linejoin="round"/>
<path d="M151.447 396.896L151.939 397.279C153.42 398.431 155.552 398.162 156.702 396.68L158.858 393.901C160.008 392.419 159.74 390.284 158.259 389.132L157.767 388.749C156.287 387.598 154.154 387.866 153.004 389.348L150.849 392.127C149.699 393.609 149.967 395.745 151.447 396.896Z" fill="white" stroke="#263238" stroke-width="1.01" stroke-linecap="round" stroke-linejoin="round"/>
<path d="M135.351 181.857H134.117C130.295 181.857 127.196 184.96 127.196 188.788V201.228C127.196 205.056 130.295 208.159 134.117 208.159H135.351C139.173 208.159 142.272 205.056 142.272 201.228V188.788C142.272 184.96 139.173 181.857 135.351 181.857Z" fill="white" stroke="#263238" stroke-width="1.01" stroke-linecap="round" stroke-linejoin="round"/>
<path d="M237.235 181.857H236.002C232.179 181.857 229.08 184.96 229.08 188.788V201.228C229.08 205.056 232.179 208.159 236.002 208.159H237.235C241.057 208.159 244.156 205.056 244.156 201.228V188.788C244.156 184.96 241.057 181.857 237.235 181.857Z" fill="white" stroke="#263238" stroke-width="1.01" stroke-linecap="round" stroke-linejoin="round"/>
<path d="M171.164 115.964H201.965C210.795 115.964 219.264 119.477 225.507 125.729C231.751 131.981 235.259 140.461 235.259 149.302V218.488C235.259 230.358 230.55 241.741 222.168 250.135C213.785 258.528 202.416 263.243 190.562 263.243H182.607C176.737 263.243 170.925 262.086 165.502 259.837C160.079 257.587 155.152 254.291 151.001 250.135C146.851 245.979 143.558 241.045 141.312 235.615C139.066 230.185 137.91 224.365 137.91 218.488V149.302C137.91 140.468 141.412 131.994 147.647 125.743C153.882 119.492 162.341 115.975 171.164 115.964Z" fill="white" stroke="#263238" stroke-width="1.01" stroke-linecap="round" stroke-linejoin="round"/>
<path d="M175.115 174.183H159.761C158.377 174.183 157.255 175.307 157.255 176.693V177.144C157.255 178.53 158.377 179.654 159.761 179.654H175.115C176.499 179.654 177.621 178.53 177.621 177.144V176.693C177.621 175.307 176.499 174.183 175.115 174.183Z" fill="#263238" stroke="#263238" stroke-width="1.01" stroke-linecap="round" stroke-linejoin="round"/>
<path d="M215.357 174.183H200.003C198.619 174.183 197.497 175.307 197.497 176.693V177.144C197.497 178.53 198.619 179.654 200.003 179.654H215.357C216.741 179.654 217.863 178.53 217.863 177.144V176.693C217.863 175.307 216.741 174.183 215.357 174.183Z" fill="#263238" stroke="#263238" stroke-width="1.01" stroke-linecap="round" stroke-linejoin="round"/>
<path d="M173.126 190.859C173.126 194.019 171.681 196.568 169.891 196.568C168.101 196.568 166.669 194.019 166.669 190.859C166.669 187.699 168.114 185.137 169.891 185.137C171.668 185.137 173.126 187.699 173.126 190.859Z" fill="#263238" stroke="#263238" stroke-width="1.01" stroke-linecap="round" stroke-linejoin="round"/>
<path d="M209.43 190.859C209.43 194.019 207.985 196.568 206.195 196.568C204.405 196.568 202.96 194.019 202.96 190.859C202.96 187.699 204.405 185.137 206.195 185.137C207.985 185.137 209.43 187.699 209.43 190.859Z" fill="#263238" stroke="#263238" stroke-width="1.01" stroke-linecap="round" stroke-linejoin="round"/>
<path d="M203.98 115.965H169.148C160.853 115.965 152.897 119.264 147.031 125.138C141.165 131.011 137.87 138.978 137.87 147.284V220.877C137.87 232.114 142.327 242.89 150.262 250.835C158.197 258.78 168.959 263.244 180.18 263.244H193.015C198.572 263.245 204.074 262.151 209.209 260.022C214.343 257.894 219.008 254.773 222.937 250.839C226.866 246.904 229.983 242.233 232.108 237.092C234.234 231.951 235.327 226.441 235.325 220.877V147.284C235.325 143.166 234.514 139.088 232.938 135.283C231.362 131.479 229.052 128.024 226.141 125.114C223.229 122.205 219.773 119.9 215.971 118.33C212.168 116.759 208.094 115.956 203.98 115.965ZM227.847 210.508C227.847 210.508 227.847 219.457 218.91 228.419C218.91 228.419 209.47 215.978 205.492 214.983C202.92 214.345 193.347 214.531 186.85 214.744C180.366 214.531 170.779 214.345 168.287 214.983C164.309 215.978 154.868 228.419 154.868 228.419C145.931 219.457 145.931 210.508 145.931 210.508V169.709L150.585 163.575C152.365 161.295 153.386 158.513 153.502 155.621C153.619 152.729 152.826 149.873 151.235 147.457C149.563 144.89 148.836 141.821 149.177 138.776C149.518 135.731 150.907 132.9 153.105 130.768L153.198 130.688C155.326 128.626 158.087 127.343 161.034 127.044C163.98 126.745 166.942 127.449 169.44 129.042L176.388 134.499C179.418 136.867 183.151 138.154 186.995 138.154C190.839 138.154 194.573 136.867 197.603 134.499L204.524 129.042C207.036 127.44 210.013 126.73 212.977 127.029C215.94 127.328 218.717 128.617 220.86 130.688L220.939 130.768C223.14 132.941 224.518 135.813 224.837 138.891C225.157 141.97 224.397 145.063 222.689 147.643C221.154 150.052 220.404 152.879 220.544 155.734C220.685 158.588 221.708 161.328 223.472 163.575L228.285 169.709L227.847 210.508Z" fill="#263238" stroke="#263238" stroke-width="1.01" stroke-linecap="round" stroke-linejoin="round"/>
<path d="M194.023 208.809C194.023 208.809 199.989 208.012 199.989 211.464C199.989 214.916 196.502 217.426 189.554 214.943" fill="white"/>
<path d="M194.023 208.809C194.023 208.809 199.989 208.012 199.989 211.464C199.989 214.916 196.502 217.426 189.554 214.943" stroke="#263238" stroke-width="1.01" stroke-linecap="round" stroke-linejoin="round"/>
<path d="M193.519 180.649V209.513C193.519 211.095 192.892 212.613 191.776 213.733C190.66 214.853 189.146 215.484 187.565 215.487H182.262C178.47 215.753 177.144 214.824 176.693 213.217C176.552 212.682 176.524 212.124 176.611 211.577C176.698 211.031 176.897 210.509 177.197 210.044C177.197 208.557 183.535 208.557 183.535 208.557" fill="white"/>
<path d="M193.519 180.649V209.513C193.519 211.095 192.892 212.613 191.776 213.733C190.66 214.853 189.146 215.484 187.565 215.487H182.262C178.47 215.753 177.144 214.824 176.693 213.217C176.552 212.682 176.524 212.124 176.611 211.577C176.698 211.031 176.897 210.509 177.197 210.044V210.044C177.197 208.557 183.535 208.557 183.535 208.557" stroke="#263238" stroke-width="1.01" stroke-linecap="round" stroke-linejoin="round"/>
<path d="M187.274 231.95C181.74 231.981 176.294 230.558 171.482 227.821C171.009 227.504 170.678 227.014 170.56 226.456C170.442 225.898 170.546 225.315 170.85 224.833C171.154 224.35 171.634 224.005 172.187 223.872C172.741 223.738 173.326 223.826 173.816 224.117C177.984 226.397 182.661 227.581 187.41 227.558C192.159 227.534 196.825 226.305 200.971 223.984C201.225 223.835 201.507 223.738 201.8 223.7C202.092 223.662 202.389 223.684 202.673 223.764C202.957 223.844 203.222 223.981 203.452 224.167C203.682 224.352 203.872 224.582 204.011 224.843C204.149 225.104 204.234 225.39 204.259 225.684C204.285 225.979 204.25 226.275 204.158 226.556C204.066 226.836 203.919 227.096 203.724 227.318C203.529 227.54 203.292 227.72 203.026 227.848C198.197 230.505 192.783 231.915 187.274 231.95Z" fill="white" stroke="#263238" stroke-width="1.01" stroke-linecap="round" stroke-linejoin="round"/>
<path d="M203.238 199.489H212.864" stroke="#263238" stroke-width="1.01" stroke-linecap="round" stroke-linejoin="round"/>
<path d="M164.998 199.489H174.624" stroke="#263238" stroke-width="1.01" stroke-linecap="round" stroke-linejoin="round"/>
<path d="M126.865 446.025C136.37 446.025 144.075 438.309 144.075 428.792C144.075 419.274 136.37 411.558 126.865 411.558C117.359 411.558 109.654 419.274 109.654 428.792C109.654 438.309 117.359 446.025 126.865 446.025Z" stroke="#263238" stroke-width="0.724166" stroke-linecap="round" stroke-linejoin="round"/>
<path d="M126.838 433.054C125.917 433.054 125.033 432.687 124.382 432.035C123.73 431.382 123.364 430.498 123.364 429.575V418.555C123.364 417.633 123.73 416.748 124.382 416.096C125.033 415.443 125.917 415.077 126.838 415.077C127.759 415.077 128.643 415.443 129.295 416.096C129.946 416.748 130.312 417.633 130.312 418.555V429.575C130.312 430.498 129.946 431.382 129.295 432.035C128.643 432.687 127.759 433.054 126.838 433.054Z" fill="#263238"/>
<path d="M126.865 435.563C125.238 435.559 123.678 434.91 122.528 433.758C121.377 432.606 120.729 431.045 120.726 429.416V424.238C120.726 424.069 120.793 423.907 120.912 423.787C121.031 423.667 121.193 423.6 121.362 423.6C121.446 423.599 121.53 423.614 121.608 423.645C121.686 423.677 121.757 423.723 121.816 423.783C121.876 423.842 121.922 423.913 121.954 423.992C121.985 424.07 122 424.153 121.998 424.238V429.416C122.064 430.666 122.605 431.843 123.512 432.705C124.419 433.566 125.621 434.047 126.871 434.047C128.121 434.047 129.324 433.566 130.23 432.705C131.137 431.843 131.679 430.666 131.744 429.416V424.238C131.742 424.153 131.757 424.07 131.789 423.992C131.82 423.913 131.867 423.842 131.926 423.783C131.986 423.723 132.057 423.677 132.135 423.645C132.213 423.614 132.296 423.599 132.38 423.6C132.549 423.6 132.711 423.667 132.83 423.787C132.95 423.907 133.017 424.069 133.017 424.238V429.416C133.013 431.047 132.364 432.611 131.21 433.763C130.057 434.915 128.494 435.563 126.865 435.563Z" fill="#263238"/>
<path d="M126.865 442.175C126.782 442.175 126.699 442.158 126.623 442.126C126.547 442.094 126.477 442.046 126.419 441.987C126.361 441.928 126.316 441.857 126.285 441.78C126.254 441.703 126.24 441.62 126.241 441.537V434.899C126.241 434.723 126.311 434.554 126.436 434.429C126.56 434.305 126.729 434.235 126.904 434.235C127.08 434.235 127.249 434.305 127.373 434.429C127.498 434.554 127.567 434.723 127.567 434.899V441.537C127.57 441.627 127.553 441.717 127.518 441.8C127.482 441.883 127.43 441.958 127.363 442.018C127.296 442.079 127.217 442.124 127.131 442.151C127.045 442.178 126.954 442.186 126.865 442.175Z" fill="#263238"/>
<path d="M131.108 442.52H122.635C122.467 442.516 122.307 442.448 122.189 442.329C122.07 442.21 122.002 442.05 121.998 441.882C121.998 441.713 122.066 441.551 122.185 441.432C122.304 441.312 122.466 441.245 122.635 441.245H131.108C131.276 441.245 131.438 441.312 131.558 441.432C131.677 441.551 131.744 441.713 131.744 441.882C131.741 442.05 131.672 442.21 131.554 442.329C131.435 442.448 131.275 442.516 131.108 442.52Z" fill="#263238"/>
<path d="M240.828 446.025C250.333 446.025 258.038 438.309 258.038 428.792C258.038 419.274 250.333 411.558 240.828 411.558C231.323 411.558 223.617 419.274 223.617 428.792C223.617 438.309 231.323 446.025 240.828 446.025Z" stroke="#263238" stroke-width="0.724166" stroke-linecap="round" stroke-linejoin="round"/>
<path d="M251.449 423.746L246.423 426.654V424.264C246.42 423.721 246.202 423.201 245.817 422.818C245.432 422.434 244.911 422.219 244.368 422.219H233.018C232.749 422.218 232.482 422.269 232.233 422.371C231.983 422.473 231.757 422.624 231.566 422.814C231.375 423.004 231.223 423.23 231.12 423.479C231.016 423.728 230.963 423.994 230.963 424.264V433.425C230.961 433.696 231.013 433.964 231.116 434.215C231.219 434.465 231.37 434.693 231.561 434.884C231.752 435.076 231.98 435.227 232.23 435.33C232.48 435.433 232.748 435.485 233.018 435.483H244.368C244.638 435.483 244.905 435.43 245.155 435.326C245.404 435.223 245.631 435.071 245.821 434.88C246.012 434.689 246.164 434.462 246.267 434.213C246.37 433.963 246.423 433.695 246.423 433.425V431.102L251.449 434.009V423.746Z" fill="#263238"/>
<path d="M183.853 446.025C193.358 446.025 201.063 438.309 201.063 428.792C201.063 419.274 193.358 411.558 183.853 411.558C174.348 411.558 166.642 419.274 166.642 428.792C166.642 438.309 174.348 446.025 183.853 446.025Z" fill="#263238" stroke="#263238" stroke-width="0.724166" stroke-linecap="round" stroke-linejoin="round"/>
<path d="M192.564 425.154H175.142C174.659 425.153 174.182 425.259 173.745 425.464C173.308 425.669 172.922 425.968 172.613 426.339C172.304 426.71 172.081 427.145 171.959 427.613C171.837 428.08 171.819 428.569 171.906 429.044L172.41 431.779C172.447 431.964 172.546 432.131 172.69 432.252C172.835 432.373 173.017 432.44 173.206 432.443H178.509C178.727 432.443 178.937 432.356 179.091 432.201C179.245 432.047 179.331 431.838 179.331 431.619V428.659H188.48V431.619C188.48 431.838 188.567 432.047 188.721 432.201C188.875 432.356 189.084 432.443 189.302 432.443H194.606C194.797 432.443 194.982 432.377 195.13 432.256C195.277 432.135 195.378 431.966 195.415 431.779L195.919 429.044C196.009 428.559 195.988 428.059 195.859 427.583C195.731 427.107 195.496 426.666 195.174 426.292C194.852 425.919 194.451 425.622 193.999 425.425C193.547 425.228 193.057 425.135 192.564 425.154Z" fill="#EE6F57"/>
<path d="M273.698 92.5181H257.495V101.413H273.698V92.5181Z" stroke="#263238" stroke-width="0.821067" stroke-linecap="round" stroke-linejoin="round"/>
<path d="M270.131 92.5181H257.495V101.413H270.131V92.5181Z" fill="#263238" stroke="#263238" stroke-width="0.725073" stroke-linecap="round" stroke-linejoin="round"/>
<path d="M275.938 95.0004H273.658V98.917H275.938V95.0004Z" fill="#263238" stroke="#263238" stroke-width="0.725073" stroke-linecap="round" stroke-linejoin="round"/>
<path d="M92.311 95.2663H89.3409V100.365H92.311V95.2663Z" fill="#263238" stroke="#263238" stroke-width="0.883086" stroke-linecap="round" stroke-linejoin="round"/>
<path d="M96.9782 93.4872H94.0081V100.378H96.9782V93.4872Z" fill="#263238" stroke="#263238" stroke-width="0.883086" stroke-linecap="round" stroke-linejoin="round"/>
<path d="M101.645 91.3628H98.6754V100.364H101.645V91.3628Z" fill="#263238" stroke="#263238" stroke-width="0.883086" stroke-linecap="round" stroke-linejoin="round"/>
<path d="M281.388 88.7204H85.9863V454.482H281.388V88.7204Z" stroke="#263238" stroke-linecap="round" stroke-linejoin="round"/>
<path d="M40.9579 479.35H537" stroke="#263238" stroke-width="1.01" stroke-linecap="round" stroke-linejoin="round"/>
<path d="M13.7763 479.349H26.8897" stroke="#263238" stroke-width="1.01" stroke-linecap="round" stroke-linejoin="round"/>
</svg>
